G75*
%MOIN*%
%OFA0B0*%
%FSLAX25Y25*%
%IPPOS*%
%LPD*%
%AMOC8*
5,1,8,0,0,1.08239X$1,22.5*
%
%ADD10OC8,0.06000*%
%ADD11R,0.01200X0.02400*%
%ADD12R,0.01600X0.03200*%
%ADD13C,0.01000*%
%ADD14C,0.04000*%
D10*
X0026000Y0056000D03*
X0026000Y0066000D03*
X0016000Y0066000D03*
X0016000Y0076000D03*
X0026000Y0076000D03*
X0026000Y0086000D03*
X0016000Y0086000D03*
X0076000Y0086000D03*
X0076000Y0076000D03*
X0076000Y0066000D03*
X0076000Y0056000D03*
X0086000Y0066000D03*
X0086000Y0076000D03*
X0086000Y0086000D03*
D11*
X0081236Y0039189D03*
X0078677Y0039189D03*
X0076118Y0039189D03*
X0073559Y0039189D03*
X0071000Y0039189D03*
X0068441Y0039189D03*
X0065882Y0039189D03*
X0063323Y0039189D03*
X0060764Y0039189D03*
X0058205Y0039189D03*
X0058205Y0015164D03*
X0060764Y0015164D03*
X0063323Y0015164D03*
X0065882Y0015164D03*
X0068441Y0015164D03*
X0071000Y0015164D03*
X0073559Y0015164D03*
X0076118Y0015164D03*
X0078677Y0015164D03*
X0081236Y0015164D03*
D12*
X0020882Y0018780D03*
X0023441Y0018780D03*
X0026000Y0018780D03*
X0028559Y0018780D03*
X0040882Y0018780D03*
X0043441Y0018780D03*
X0046000Y0018780D03*
X0048559Y0018780D03*
X0048559Y0037102D03*
X0046000Y0037102D03*
X0043441Y0037102D03*
X0040882Y0037102D03*
X0028559Y0037102D03*
X0026000Y0037102D03*
X0023441Y0037102D03*
X0020882Y0037102D03*
D13*
X0023441Y0037102D02*
X0023400Y0038000D01*
X0023400Y0047000D01*
X0016200Y0054200D01*
X0016200Y0065900D01*
X0016000Y0066000D01*
X0020700Y0071300D02*
X0016000Y0076000D01*
X0011700Y0078500D02*
X0014400Y0081200D01*
X0020700Y0081200D01*
X0025200Y0085700D01*
X0026000Y0086000D01*
X0027000Y0091100D02*
X0020700Y0091100D01*
X0016200Y0086600D01*
X0016000Y0086000D01*
X0011700Y0078500D02*
X0011700Y0023600D01*
X0028800Y0006500D01*
X0063900Y0006500D01*
X0071100Y0013700D01*
X0071100Y0014600D01*
X0071000Y0015164D01*
X0071100Y0014600D02*
X0073800Y0014600D01*
X0073559Y0015164D01*
X0075600Y0015500D02*
X0076118Y0015164D01*
X0075600Y0015500D02*
X0075600Y0027200D01*
X0071100Y0031700D01*
X0071100Y0038900D01*
X0071000Y0039189D01*
X0071100Y0039800D01*
X0071100Y0040700D01*
X0069300Y0042500D01*
X0070200Y0043400D01*
X0069300Y0042500D02*
X0062100Y0042500D01*
X0061200Y0041600D01*
X0061200Y0039800D01*
X0060764Y0039189D01*
X0063000Y0038900D02*
X0063000Y0037100D01*
X0062100Y0036200D01*
X0056700Y0036200D01*
X0050400Y0042500D01*
X0050400Y0067700D01*
X0027000Y0091100D01*
X0020700Y0071300D02*
X0020700Y0052400D01*
X0026100Y0047000D01*
X0026100Y0038000D01*
X0026000Y0037102D01*
X0026100Y0037100D01*
X0026100Y0035300D01*
X0023400Y0032600D01*
X0023400Y0019100D01*
X0023441Y0018780D01*
X0026000Y0018780D02*
X0026100Y0018200D01*
X0026100Y0016400D01*
X0034200Y0008300D01*
X0055800Y0008300D01*
X0060300Y0012800D01*
X0060300Y0014600D01*
X0060764Y0015164D01*
X0063000Y0015500D02*
X0063000Y0017300D01*
X0058500Y0021800D01*
X0044100Y0021800D01*
X0043200Y0020900D01*
X0043200Y0019100D01*
X0043441Y0018780D01*
X0045900Y0018200D02*
X0046000Y0018780D01*
X0045900Y0018200D02*
X0045900Y0014600D01*
X0045000Y0013700D01*
X0048600Y0011900D02*
X0048600Y0018200D01*
X0048559Y0018780D01*
X0043200Y0023600D02*
X0040500Y0020900D01*
X0040500Y0019100D01*
X0040882Y0018780D01*
X0043200Y0023600D02*
X0059400Y0023600D01*
X0065700Y0017300D01*
X0065700Y0015500D01*
X0065882Y0015164D01*
X0068400Y0015500D02*
X0068400Y0017300D01*
X0055800Y0029900D01*
X0045900Y0029900D01*
X0040500Y0035300D01*
X0040500Y0037100D01*
X0040882Y0037102D01*
X0040500Y0038000D01*
X0028800Y0049700D01*
X0043200Y0037100D02*
X0043441Y0037102D01*
X0043200Y0037100D02*
X0043200Y0035300D01*
X0046800Y0031700D01*
X0063000Y0031700D01*
X0068400Y0037100D01*
X0068400Y0038900D01*
X0068441Y0039189D01*
X0065882Y0039189D02*
X0065700Y0038900D01*
X0065700Y0037100D01*
X0062100Y0033500D01*
X0047700Y0033500D01*
X0045900Y0035300D01*
X0045900Y0037100D01*
X0046000Y0037102D01*
X0048559Y0037102D02*
X0048600Y0038000D01*
X0048600Y0043400D01*
X0026000Y0066000D01*
X0028800Y0032600D02*
X0028800Y0019100D01*
X0028559Y0018780D01*
X0028800Y0018200D01*
X0035100Y0018200D01*
X0043200Y0010100D01*
X0046800Y0010100D01*
X0048600Y0011900D01*
X0063000Y0015500D02*
X0063323Y0015164D01*
X0068400Y0015500D02*
X0068441Y0015164D01*
X0078300Y0015500D02*
X0078677Y0015164D01*
X0079200Y0015500D01*
X0081000Y0015500D01*
X0081236Y0015164D01*
X0078300Y0015500D02*
X0078300Y0029900D01*
X0077400Y0036200D02*
X0081900Y0036200D01*
X0090900Y0045200D01*
X0090900Y0071300D01*
X0086400Y0075800D01*
X0086000Y0076000D01*
X0081000Y0081200D02*
X0085500Y0085700D01*
X0086000Y0086000D01*
X0081000Y0081200D02*
X0081000Y0064100D01*
X0082800Y0062300D01*
X0082800Y0053300D01*
X0081000Y0051500D01*
X0081000Y0039800D01*
X0081236Y0039189D01*
X0078677Y0039189D02*
X0078300Y0039800D01*
X0078300Y0051500D01*
X0081000Y0054200D01*
X0081000Y0061400D01*
X0076500Y0065900D01*
X0076000Y0066000D01*
X0071100Y0071300D02*
X0075600Y0075800D01*
X0076000Y0076000D01*
X0071100Y0071300D02*
X0071100Y0054200D01*
X0073800Y0051500D01*
X0073800Y0039800D01*
X0073559Y0039189D01*
X0076118Y0039189D02*
X0076500Y0038900D01*
X0076500Y0037100D01*
X0077400Y0036200D01*
X0063323Y0039189D02*
X0063000Y0038900D01*
D14*
X0070200Y0043400D03*
X0078300Y0029900D03*
X0045000Y0013700D03*
X0028800Y0032600D03*
X0028800Y0049700D03*
M02*
