G75*
%MOIN*%
%OFA0B0*%
%FSLAX25Y25*%
%IPPOS*%
%LPD*%
%AMOC8*
5,1,8,0,0,1.08239X$1,22.5*
%
%ADD10OC8,0.05200*%
%ADD11C,0.05200*%
%ADD12C,0.06000*%
%ADD13C,0.02400*%
%ADD14C,0.04000*%
D10*
X0026000Y0060000D03*
X0036000Y0060000D03*
X0056000Y0060000D03*
X0066000Y0060000D03*
X0076000Y0085000D03*
X0091000Y0085000D03*
X0091000Y0115000D03*
X0076000Y0115000D03*
X0046000Y0130000D03*
X0046000Y0160000D03*
X0046000Y0200000D03*
X0056000Y0210000D03*
X0056000Y0220000D03*
X0046000Y0230000D03*
X0136000Y0235000D03*
X0146000Y0225000D03*
X0146000Y0215000D03*
X0136000Y0205000D03*
X0136000Y0160000D03*
X0136000Y0150000D03*
X0116000Y0150000D03*
X0116000Y0120000D03*
X0166000Y0150000D03*
X0166000Y0160000D03*
X0226000Y0165000D03*
X0226000Y0135000D03*
X0231000Y0115000D03*
X0246000Y0115000D03*
X0246000Y0085000D03*
X0231000Y0085000D03*
X0296000Y0125000D03*
X0306000Y0135000D03*
X0316000Y0135000D03*
X0296000Y0155000D03*
X0306000Y0165000D03*
X0316000Y0165000D03*
X0236000Y0220000D03*
X0236000Y0230000D03*
X0226000Y0240000D03*
X0226000Y0210000D03*
X0246000Y0300000D03*
X0256000Y0300000D03*
X0346000Y0300000D03*
X0356000Y0300000D03*
D11*
X0286000Y0250000D03*
X0286000Y0240000D03*
X0286000Y0230000D03*
X0286000Y0220000D03*
X0256000Y0220000D03*
X0256000Y0230000D03*
X0256000Y0240000D03*
X0256000Y0250000D03*
X0196000Y0245000D03*
X0196000Y0235000D03*
X0196000Y0225000D03*
X0196000Y0215000D03*
X0166000Y0215000D03*
X0166000Y0225000D03*
X0166000Y0235000D03*
X0166000Y0245000D03*
X0106000Y0240000D03*
X0106000Y0230000D03*
X0106000Y0220000D03*
X0106000Y0210000D03*
X0076000Y0210000D03*
X0076000Y0220000D03*
X0076000Y0230000D03*
X0076000Y0240000D03*
X0076000Y0170000D03*
X0076000Y0160000D03*
X0076000Y0150000D03*
X0076000Y0140000D03*
X0106000Y0140000D03*
X0106000Y0150000D03*
X0106000Y0160000D03*
X0106000Y0170000D03*
X0256000Y0165000D03*
X0256000Y0175000D03*
X0256000Y0155000D03*
X0256000Y0145000D03*
X0286000Y0145000D03*
X0286000Y0155000D03*
X0286000Y0165000D03*
X0286000Y0175000D03*
D12*
X0036000Y0048000D02*
X0036000Y0042000D01*
X0046000Y0042000D02*
X0046000Y0048000D01*
X0056000Y0048000D02*
X0056000Y0042000D01*
X0216000Y0042000D02*
X0216000Y0048000D01*
X0226000Y0048000D02*
X0226000Y0042000D01*
X0271000Y0042000D02*
X0271000Y0048000D01*
X0281000Y0048000D02*
X0281000Y0042000D01*
X0341000Y0042000D02*
X0341000Y0048000D01*
X0351000Y0048000D02*
X0351000Y0042000D01*
D13*
X0350600Y0044400D02*
X0351000Y0045000D01*
X0350600Y0044400D02*
X0342600Y0036400D01*
X0316200Y0036400D01*
X0316200Y0134800D01*
X0316000Y0135000D01*
X0310600Y0127600D02*
X0310600Y0160400D01*
X0306000Y0165000D01*
X0301000Y0168400D02*
X0295400Y0174000D01*
X0295400Y0175000D01*
X0295488Y0175000D01*
X0295400Y0175000D02*
X0286000Y0175000D01*
X0301000Y0168400D02*
X0301000Y0122800D01*
X0293800Y0115600D01*
X0246600Y0115600D01*
X0246000Y0115000D01*
X0226600Y0134800D02*
X0226000Y0135000D01*
X0226600Y0134800D02*
X0295400Y0134800D01*
X0295400Y0125200D01*
X0296000Y0125000D01*
X0295400Y0134800D02*
X0295400Y0146000D01*
X0286600Y0154800D01*
X0286000Y0155000D01*
X0256000Y0155000D02*
X0246000Y0155512D01*
X0256000Y0165000D02*
X0226000Y0165000D01*
X0236000Y0220000D02*
X0236200Y0220400D01*
X0240200Y0220400D01*
X0245000Y0225200D01*
X0257800Y0225200D01*
X0262600Y0230000D01*
X0286000Y0230000D01*
X0286600Y0230800D01*
X0355400Y0299600D01*
X0356000Y0300000D01*
X0295488Y0250000D02*
X0286000Y0250000D01*
X0285000Y0250000D01*
X0280200Y0245200D01*
X0206600Y0245200D01*
X0205488Y0245000D01*
X0196000Y0245000D01*
X0191400Y0240400D01*
X0116200Y0240400D01*
X0115488Y0240000D01*
X0106000Y0240000D01*
X0105000Y0239600D01*
X0101000Y0235600D01*
X0101000Y0208400D01*
X0105800Y0203600D01*
X0105800Y0170800D01*
X0106000Y0170000D01*
X0115488Y0170000D01*
X0116200Y0169200D01*
X0121000Y0164400D01*
X0121000Y0148400D01*
X0099400Y0126800D01*
X0081000Y0126800D01*
X0057000Y0102800D01*
X0057000Y0060400D01*
X0056000Y0060000D01*
X0056000Y0045000D01*
X0066000Y0060000D02*
X0066600Y0060400D01*
X0066600Y0082800D01*
X0075400Y0091600D01*
X0075400Y0114800D01*
X0076000Y0115000D01*
X0091400Y0108400D02*
X0131400Y0148400D01*
X0131400Y0156400D01*
X0134600Y0159600D01*
X0136000Y0160000D01*
X0135400Y0160400D01*
X0135400Y0198800D01*
X0106600Y0227600D01*
X0106600Y0230000D01*
X0106000Y0230000D01*
X0088200Y0217200D02*
X0076200Y0229200D01*
X0076000Y0230000D01*
X0056000Y0230000D01*
X0056000Y0220000D01*
X0066000Y0220512D02*
X0076000Y0220000D01*
X0076200Y0218800D01*
X0076200Y0216400D01*
X0081000Y0211600D01*
X0084200Y0214800D01*
X0081000Y0211600D02*
X0081000Y0155600D01*
X0076200Y0150800D01*
X0076000Y0150000D01*
X0066000Y0150512D01*
X0076000Y0160000D02*
X0046000Y0160000D01*
X0046000Y0130000D02*
X0085800Y0130000D01*
X0105800Y0150000D01*
X0106000Y0150000D01*
X0115400Y0150000D02*
X0116000Y0150000D01*
X0115400Y0150000D02*
X0115400Y0157200D01*
X0107400Y0165200D01*
X0104200Y0165200D01*
X0088200Y0181200D01*
X0088200Y0217200D01*
X0056000Y0210000D02*
X0056000Y0200000D01*
X0046000Y0200000D01*
X0046000Y0230000D02*
X0056000Y0230000D01*
X0136000Y0235000D02*
X0146000Y0235000D01*
X0146000Y0225000D01*
X0150600Y0219600D02*
X0146000Y0215000D01*
X0150600Y0219600D02*
X0177800Y0219600D01*
X0182600Y0224400D01*
X0195400Y0224400D01*
X0196000Y0225000D01*
X0183400Y0230000D02*
X0229000Y0230000D01*
X0233800Y0225200D01*
X0240200Y0225200D01*
X0245000Y0230000D01*
X0246000Y0230512D01*
X0256000Y0230000D01*
X0256000Y0240000D02*
X0236000Y0240000D01*
X0236000Y0230000D01*
X0236000Y0240000D02*
X0226000Y0240000D01*
X0183400Y0230000D02*
X0179400Y0226000D01*
X0166600Y0226000D01*
X0166000Y0225000D01*
X0156000Y0225512D01*
X0166000Y0235000D02*
X0146000Y0235000D01*
X0091400Y0108400D02*
X0091400Y0085200D01*
X0091000Y0085000D01*
X0036000Y0060000D02*
X0036000Y0045000D01*
X0226000Y0045000D02*
X0226600Y0045200D01*
X0234600Y0053200D01*
X0273000Y0053200D01*
X0281000Y0045200D01*
X0281000Y0045000D01*
X0281800Y0044400D01*
X0289800Y0036400D01*
X0316200Y0036400D01*
X0268200Y0085200D02*
X0310600Y0127600D01*
X0268200Y0085200D02*
X0246600Y0085200D01*
X0246000Y0085000D01*
D14*
X0084200Y0214800D03*
M02*
